<svg width="92" height="32" viewBox="0 0 92 32" fill="none" xmlns="http://www.w3.org/2000/svg">
<path d="M6.16406 8.38281C6.16406 10.2227 6.42188 12.4258 7.64062 14.0898C8.84766 12.4258 9.08203 10.2695 9.07031 8.38281V7.04688H11.8828V8.38281C11.8828 11.0195 12.5625 13.8438 15.0469 15.3438L13.4062 17.4297C11.9648 16.5859 11.0508 15.2383 10.5 13.6562C9.98438 15.3086 9.10547 16.7617 7.64062 17.6875C6.15234 16.75 5.26172 15.25 4.75781 13.5742C4.20703 15.1797 3.30469 16.5625 1.85156 17.4297L0.234375 15.3438C2.69531 13.8086 3.35156 10.9258 3.35156 8.38281V7.04688H6.16406V8.38281ZM3.21094 21.625V19.2578H18.1641V27.1562H15.1875V21.625H3.21094ZM15.1875 18.3203V5.82812H18.1641V10.8438H20.3672V13.3281H18.1641V18.3203H15.1875ZM39.2344 5.85156V17.875H36.2344V5.85156H39.2344ZM21.3047 15.1562C24.8789 14.0781 26.4375 11.3477 26.4375 8.6875V6.625H29.5547V8.6875C29.5312 11.2773 31.1016 13.7617 34.5469 14.8281L33.0938 17.1016C30.6562 16.375 28.9688 14.8984 28.0078 12.9883C27.0352 15.0625 25.3008 16.7031 22.7578 17.5L21.3047 15.1562ZM24.9375 26.9219V18.8594H39.2344V26.9219H24.9375ZM27.8906 24.5312H36.3047V21.2266H27.8906V24.5312ZM60.0469 5.82812V27.1562H57.0234V5.82812H60.0469ZM42.1875 21.1094C47.6953 18.5078 50.1211 15.1328 50.6016 10.3984H43.3359V8.05469H53.6484C53.6367 14.5234 51.375 19.9023 43.7578 23.5L42.1875 21.1094ZM67.7578 26.68H91.7578V2.68H67.7578V26.68Z" fill="#00C471"/>
</svg>
