<svg width="13" height="11" viewBox="0 0 13 11" fill="none" xmlns="http://www.w3.org/2000/svg">
<path d="M6.04688 0C9.35156 0 12.0469 2.20312 12.0469 4.875C12.0469 7.57031 9.35156 9.75 6.04688 9.75C5.27344 9.75 4.54688 9.63281 3.86719 9.42188C3.1875 9.91406 2.03906 10.5 0.609375 10.5C0.375 10.5 0.164062 10.3828 0.0703125 10.1719C0 9.96094 0.0234375 9.72656 0.1875 9.5625C0.210938 9.5625 0.9375 8.76562 1.26562 7.85156C0.492188 7.03125 0.046875 6 0.046875 4.875C0.046875 2.20312 2.71875 0 6.04688 0ZM6.04688 8.625C8.71875 8.625 10.9219 6.96094 10.9219 4.875C10.9219 2.8125 8.71875 1.125 6.04688 1.125C3.35156 1.125 1.17188 2.8125 1.17188 4.875C1.17188 5.88281 1.66406 6.63281 2.08594 7.07812L2.57812 7.59375L2.32031 8.25C2.20312 8.57812 2.03906 8.90625 1.85156 9.1875C2.41406 9 2.88281 8.74219 3.21094 8.50781L3.65625 8.17969L4.19531 8.34375C4.78125 8.53125 5.41406 8.625 6.04688 8.625Z" fill="#ADB5BD"/>
</svg>
