<svg width="13" height="11" viewBox="0 0 13 11" fill="none" xmlns="http://www.w3.org/2000/svg">
<path d="M11.25 1.14844C13.0078 2.625 12.75 5.03906 11.5078 6.32812L7.38281 10.5234C7.14844 10.7578 6.84375 10.8984 6.51562 10.8984C6.16406 10.8984 5.85938 10.7578 5.625 10.5234L1.52344 6.32812C0.257812 5.03906 0 2.625 1.75781 1.14844C3.11719 0 5.20312 0.164062 6.51562 1.5C7.80469 0.164062 9.89062 0 11.25 1.14844ZM10.6875 5.53125C11.5547 4.66406 11.7188 3.02344 10.5234 1.99219C9.60938 1.24219 8.20312 1.35938 7.33594 2.25L6.51562 3.09375L5.69531 2.25C4.80469 1.35938 3.39844 1.24219 2.48438 2.01562C1.28906 3.02344 1.45312 4.66406 2.32031 5.53125L6.42188 9.72656C6.49219 9.77344 6.53906 9.77344 6.58594 9.72656L10.6875 5.53125Z" fill="#ADB5BD"/>
</svg>
