<svg width="16" height="12" viewBox="0 0 16 12" fill="none" xmlns="http://www.w3.org/2000/svg">
<path d="M14.5 12H1.5C0.65625 12 0 11.3438 0 10.5V1.5C0 0.6875 0.65625 0 1.5 0H14.5C15.3125 0 16 0.6875 16 1.5V10.5C16 11.3438 15.3125 12 14.5 12ZM3.5 1.75C2.53125 1.75 1.75 2.5625 1.75 3.5C1.75 4.46875 2.53125 5.25 3.5 5.25C4.4375 5.25 5.25 4.46875 5.25 3.5C5.25 2.5625 4.4375 1.75 3.5 1.75ZM2 10H14V6.5L11.25 3.78125C11.0938 3.625 10.875 3.625 10.7188 3.78125L6.5 8L4.75 6.28125C4.59375 6.125 4.375 6.125 4.21875 6.28125L2 8.5V10Z" fill="#495057"/>
</svg>
